<svg id="Layer_1" data-name="Layer 1" xmlns="http://www.w3.org/2000/svg" viewBox="0 0 1920 302"><defs><style>.cls-1{fill:#337ab7;}</style></defs><path class="cls-1" d="M92,117.59H6c-3.38,0-4.53.78-4.87,1.12S0,120.28,0,123.37V251.84c0,3.09.7,4.25,1.12,4.66s1.49,1.12,4.87,1.12H29.18c3.35,0,4.41-.74,4.72-1.06S35,255,35,251.84V207.55H81.1c3.38,0,4.53-.78,4.86-1.12s1.13-1.48,1.13-4.87V183.09c0-3.07-.7-4.24-1.13-4.67s-1.48-1.11-4.86-1.11H35V147.83H92c3.38,0,4.53-.78,4.87-1.12S98,145.22,98,141.84V123.37c0-3.08-.7-4.25-1.13-4.66s-1.48-1.12-4.86-1.12"/><path class="cls-1" d="M233.76,256.33c.5-1.12.23-2.66-.82-4.56l-18.49-35.14a43.07,43.07,0,0,0-5.25-8.37l-2.09-2.62L210,204c13.93-7.74,20.7-20.76,20.7-39.8,0-14.85-4.32-26.44-12.86-34.46s-20.49-12.16-35.4-12.16H124c-3.39,0-4.53.78-4.87,1.12s-1.12,1.58-1.12,4.66V251.84c0,3.08.7,4.25,1.12,4.66s1.48,1.12,4.87,1.12h23.19c3.35,0,4.42-.74,4.72-1.06S153,255,153,251.84V209.19h7.55c4.57,0,8.26,1,10.94,3s4.83,4.84,7,9l13.18,28.23c1.39,3.12,3.2,5.24,5.4,6.37,2.38,1.22,6.05,1.84,10.92,1.84h22.16c2,0,3.29-.43,3.67-1.29M190,176c-2.94,3-7,4.55-12,4.55H153V147.83h25c5.15,0,9.22,1.5,12.09,4.45s4.29,6.88,4.29,11.73-1.47,9-4.39,12"/><path class="cls-1" d="M347.48,227.38H288.62V202h46.13c3.39,0,4.54-.78,4.87-1.12s1.12-1.49,1.12-4.87V177.55c0-3.08-.7-4.25-1.12-4.66s-1.48-1.12-4.87-1.12H288.62V147.83h57c3.38,0,4.53-.78,4.87-1.12s1.12-1.49,1.12-4.87V123.37c0-3.08-.7-4.24-1.12-4.66s-1.49-1.12-4.87-1.12h-86c-3.39,0-4.53.78-4.87,1.12s-1.12,1.58-1.12,4.66V251.84c0,3.08.7,4.25,1.12,4.66s1.48,1.12,4.87,1.12h87.84c3.08,0,4.24-.7,4.67-1.12s1.11-1.57,1.11-4.66V233.17c0-3.45-.81-4.48-1.06-4.72-.43-.4-1.6-1.07-4.72-1.07"/><path class="cls-1" d="M369.8,157.64A47.17,47.17,0,0,0,371.06,169a64.27,64.27,0,0,0,2.94,9.24,20.84,20.84,0,0,0,4.62,6.77,67.09,67.09,0,0,0,6.11,5.52,30.88,30.88,0,0,0,7.13,3.93c3.2,1.33,5.82,2.33,7.89,3a77.75,77.75,0,0,0,8.6,2.08c3.78.75,6.55,1.25,8.31,1.52s4.56.68,8.37,1.23c8.38,1.14,14.52,2.54,18.75,4.29,6.37,2.63,7.7,7.23,7.7,10.62,0,9.64-8.34,14.53-24.79,14.53-12.87,0-21.52-4.18-25.72-12.43-1.5-2.85-2.73-3.63-3.33-3.84a3.9,3.9,0,0,0-1.21-.17,12.32,12.32,0,0,0-4.07.88l-19.3,7c-3,1.11-4,2.22-4.32,2.78s-.62,1.72.5,4.91c7.39,20.1,26.06,29.9,57,29.9,18.06,0,33-4,44.24-11.9,11.13-7.78,16.54-18.27,16.54-32.05a46.82,46.82,0,0,0-3.36-18.39,37,37,0,0,0-7.87-12.21,39.25,39.25,0,0,0-12.34-7.51,81.91,81.91,0,0,0-13.78-4.47c-3.86-.8-8.83-1.62-14.79-2.43-9.43-1.13-16.3-2.53-20.93-4.26-6.94-2.6-8.4-7.46-8.4-11.07,0-6.16,3.87-13.5,22.33-13.5,11.37,0,19.2,4.11,23.27,12.23,1.84,3.39,3,3.9,3.14,3.94s1.4.33,4.24-.94l20.56-8.84c2.34-.93,3.72-2,4.2-3.23s.19-2.59-.7-4.41A43.64,43.64,0,0,0,463,121.18c-8.72-4.43-20.51-6.67-35-6.67-18.42,0-32.92,4-43.09,12s-15,18.1-15,31.11"/><path class="cls-1" d="M616.72,117.38H593.33c-3.09,0-4.25.71-4.67,1.12s-1.12,1.48-1.12,4.87v48.19H542.06V123.37c0-3.42-.75-4.59-1.07-4.92s-1.37-1.07-4.72-1.07H513.08c-3.38,0-4.53.79-4.87,1.12s-1.12,1.48-1.12,4.87V251.84c0,3.09.71,4.25,1.12,4.67s1.49,1.11,4.87,1.11h23.19c3.35,0,4.42-.74,4.72-1.06s1.07-1.6,1.07-4.72v-50h45.48v50c0,3.09.7,4.25,1.12,4.67s1.58,1.11,4.67,1.11h23.39c3.08,0,4.25-.7,4.67-1.11s1.12-1.59,1.12-4.67V123.37c0-3.38-.79-4.53-1.12-4.87s-1.59-1.12-4.67-1.12"/><path class="cls-1" d="M1309.34,130.36c-9-8.48-21.32-12.77-36.64-12.77h-56.64c-3.39,0-4.53.78-4.87,1.12s-1.12,1.58-1.12,4.66V251.84c0,3.08.7,4.25,1.12,4.67s1.48,1.11,4.87,1.11h23.19c3.35,0,4.41-.74,4.71-1.06s1.07-1.6,1.07-4.72V213.91h28.08c15.32,0,27.58-4.23,36.44-12.56s13.26-20.17,13.26-35.29-4.53-27.27-13.47-35.7m-27.86,48.38c-3.28,3.27-7.75,4.93-13.29,4.93H1245V147.83h23.16c5.55,0,10,1.7,13.31,5.06a17.88,17.88,0,0,1,4.91,13c0,5.28-1.66,9.61-4.93,12.89"/><path class="cls-1" d="M1458.61,256.33c.5-1.12.22-2.66-.83-4.56l-18.49-35.14a43.45,43.45,0,0,0-5.24-8.37l-2.09-2.62,2.92-1.63c13.94-7.74,20.71-20.76,20.71-39.8,0-14.85-4.33-26.44-12.86-34.46s-20.49-12.16-35.41-12.16h-58.48c-3.39,0-4.54.78-4.88,1.12s-1.12,1.58-1.12,4.66V251.84c0,3.08.71,4.25,1.12,4.66s1.49,1.12,4.88,1.12H1372c3.34,0,4.41-.74,4.72-1.07s1.06-1.59,1.06-4.71V209.19h7.55c4.58,0,8.26,1,10.94,3s4.83,4.84,7,9l13.19,28.23c1.38,3.12,3.2,5.24,5.39,6.37,2.38,1.22,6.06,1.84,10.92,1.84h22.17c2,0,3.28-.43,3.67-1.29M1414.8,176c-2.94,3-7,4.55-12,4.55h-25V147.83h25c5.15,0,9.21,1.5,12.09,4.45s4.29,6.88,4.29,11.73-1.48,9-4.39,12"/><path class="cls-1" d="M1508.09,117.59h-24.22c-3,0-4.06.7-4.36,1s-1,1.35-1,4.36V252.25c0,3,.72,4.06,1,4.37s1.34,1,4.36,1h24.22c3,0,4.05-.71,4.36-1s1-1.34,1-4.36V123c0-3-.71-4-1-4.37s-1.34-1-4.35-1"/><path class="cls-1" d="M1783.08,117.59H1681.49c-3.34,0-4.41.74-4.71,1.06s-1.07,1.48-1.07,4.72v18.47c0,3.43.74,4.59,1.07,4.93s1.37,1.06,4.71,1.06h33.42v104c0,3.12.67,4.3,1.07,4.72s1.37,1.06,4.72,1.06h23.19c3.38,0,4.53-.78,4.87-1.12s1.11-1.58,1.11-4.66v-104h33.21c3.39,0,4.53-.78,4.87-1.12s1.12-1.48,1.12-4.87V123.37c0-3.09-.7-4.25-1.12-4.66s-1.48-1.12-4.87-1.12"/><path class="cls-1" d="M1802.74,157.64A47.11,47.11,0,0,0,1804,169a63.47,63.47,0,0,0,2.94,9.24,20.84,20.84,0,0,0,4.62,6.77,67.11,67.11,0,0,0,6.1,5.52,30.76,30.76,0,0,0,7.14,3.93c3.2,1.33,5.82,2.33,7.89,3a76.62,76.62,0,0,0,8.6,2.08c3.78.75,6.55,1.25,8.31,1.52s4.56.68,8.37,1.23c8.38,1.14,14.52,2.54,18.75,4.29,6.36,2.63,7.71,7.23,7.71,10.62,0,9.64-8.35,14.53-24.8,14.53-12.87,0-21.52-4.18-25.72-12.43-1.5-2.85-2.73-3.63-3.33-3.84a3.8,3.8,0,0,0-1.23-.17,12.16,12.16,0,0,0-4,.88l-19.31,7c-3,1.11-4,2.22-4.32,2.78s-.62,1.72.49,4.91c7.4,20.1,26.07,29.9,57,29.9,18.06,0,33-4,44.25-11.9,11.12-7.78,16.53-18.27,16.53-32.05a46.82,46.82,0,0,0-3.36-18.39,37.18,37.18,0,0,0-7.87-12.21,39.36,39.36,0,0,0-12.34-7.51,82.42,82.42,0,0,0-13.77-4.47c-3.87-.8-8.85-1.62-14.8-2.43-9.43-1.13-16.3-2.53-20.93-4.26-6.94-2.6-8.41-7.46-8.41-11.07,0-6.16,3.88-13.5,22.34-13.5,11.36,0,19.2,4.11,23.26,12.23,1.81,3.32,2.94,3.87,3.15,3.94s1.41.32,4.24-.94l20.56-8.84q3.5-1.4,4.19-3.23c.43-1.11.19-2.59-.69-4.41a43.64,43.64,0,0,0-19.67-20.48c-8.72-4.43-20.52-6.67-35-6.67-18.42,0-32.92,4-43.09,12s-15,18.1-15,31.11"/><path class="cls-1" d="M1651.53,117.59H1630.6c-3.35,0-4.41.74-4.71,1.06s-1.07,1.48-1.07,4.72V196l-48.53-75.59c-.77-1.2-2.28-2.8-6.23-2.8h-24.21c-3.39,0-4.54.78-4.88,1.12s-1.12,1.58-1.12,4.66V251.84c0,3.08.71,4.25,1.12,4.66s1.49,1.12,4.88,1.12h20.72c3.39,0,4.54-.78,4.87-1.12s1.12-1.58,1.12-4.66V218.39q0-5.47-.24-10.54l-.74-32.25,16.15,25.7c1,1.66,2,3.27,3,4.9l31.59,48.61c.78,1.21,2.25,2.81,6,2.81h23.19c3.09,0,4.25-.7,4.67-1.12s1.12-1.58,1.12-4.66V123.37c0-3.08-.7-4.25-1.13-4.66s-1.58-1.12-4.66-1.12"/><path class="cls-1" d="M706.37,208.65a4.14,4.14,0,0,1,4.5-5.11,77.21,77.21,0,0,1,52.57,29.72c.93,1.17,8.78,12.55,23.12,32.46a4.15,4.15,0,0,1-2.82,6.55c-22.53,3.05-39.82,2.25-52.46,3.61-2.3.24-4.5-.79-5-3-3.21-13.19-16.18-49.08-19.86-64.2"/><path class="cls-1" d="M1127.56,208.65a4.14,4.14,0,0,0-4.51-5.11,77.19,77.19,0,0,0-52.56,29.72c-.93,1.17-8.79,12.55-23.13,32.46a4.16,4.16,0,0,0,2.82,6.55c22.54,3.05,39.82,2.25,52.47,3.61,2.3.24,4.5-.79,5-3,3.21-13.19,16.18-49.08,19.86-64.2"/><path class="cls-1" d="M1151.89,119.33c-3.26-4.51-9.11-4.89-11-5L1091.51,111c-3.49-.42-8.08-.06-10.44,6.35a17.23,17.23,0,0,1-9.07,9.33c-7.72,3.56-19,2.64-32.51-2.66-11.67-4.57-18.94-10.44-21-17a15.81,15.81,0,0,1,1.41-12,9.37,9.37,0,0,0-4.16-14.11l-76.8-44.21-16.63-9.22a11.1,11.1,0,0,0-10.61,0L889.32,40,818.25,80.87A9.37,9.37,0,0,0,814.09,95a15.79,15.79,0,0,1,1.42,12c-2.09,6.55-9.36,12.42-21,17-13.55,5.3-24.78,6.22-32.5,2.66a17.27,17.27,0,0,1-9.08-9.33c-2.36-6.41-6.95-6.77-10.44-6.35l-49.35,3.32c-1.92.12-7.77.5-11,5-3.06,4.25-2.09,9.28-.94,13.62l9.6,37.27c1,4.28,4,9.26,13.3,8.91.48,0,46.93-2.83,78.36,37.83.08.1,8.25,10.33,23.63,31.71,15.56,21.61,33.73,24.05,38.71,25.16,4.12.92,16.49.6,16.49.6V166.63h65.38l32.43.11h0a33.55,33.55,0,0,1,14.2,3,29.28,29.28,0,0,1,10.2,7.83,36.6,36.6,0,0,1,8.09,23.5A38.33,38.33,0,0,1,987,219.37a30.22,30.22,0,0,1-13.77,13.07,33.45,33.45,0,0,1-14.18,3h-18.9v39h10.94l22.59-.08c18.63,0,39.74-5.48,54.28-25.68,15.39-21.38,23.55-31.61,23.63-31.71,31.43-40.66,77.88-37.83,78.36-37.83,9.25.35,12.35-4.63,13.3-8.91l9.61-37.27c1.14-4.34,2.11-9.37-.95-13.62m-241.55,34h-48.9c-4.44,0-7.73,1.14-10.06,3.47s-3.46,5.62-3.46,9.89l0,95.22c-6.48-1.18-19-4.24-31.13-21-15.61-21.69-23.7-31.82-24-32.15-31.14-40.3-75.92-42.92-87-42.92-1.56,0-2.45,0-2.53.06l-9.36-36.32c-.23-.87-.38-1.54-.48-2.05l.53,0,47.52-3.21A30.77,30.77,0,0,0,756,138.49c11.28,5.39,25.83,4.66,43.28-2.16,15.73-6.15,25.42-14.65,28.8-25.28a28.6,28.6,0,0,0-1.18-19.91L905,46.19a38.39,38.39,0,0,1,5.33-2.56ZM1140,129.61l-9.36,36.32c-.07,0-1-.06-2.53-.06-11.05,0-55.83,2.62-87,42.92-.27.33-7.77,10.89-24,32.15-10.54,13.82-26.92,19.56-39.1,20.41-11,.77-24.8.57-24.8.57V255l.15-8.58h2.9c14.32,0,26-4.12,34.58-12.24s13.16-19.69,13.16-34-4.48-26-13.32-34.37S970.36,153.37,956,153.37h-32.4V43.63A38.83,38.83,0,0,1,929,46.19l78.1,45a28.59,28.59,0,0,0-1.19,19.91c3.39,10.63,13.07,19.13,28.8,25.28,17.45,6.82,32,7.55,43.29,2.16a30.79,30.79,0,0,0,14.51-14.18l47.52,3.21.53,0c-.1.51-.25,1.18-.48,2.05"/><path class="cls-1" d="M964,208.47a11.52,11.52,0,0,0,2.32-7.18,12.21,12.21,0,0,0-1.31-5.62,8.57,8.57,0,0,0-3.8-3.8,9,9,0,0,0-4-.86H940.13v20.57h17.12a9,9,0,0,0,4-.86,8.16,8.16,0,0,0,2.79-2.25"/><polygon class="cls-1" points="885.62 211.28 909.32 211.28 909.32 234.58 885.62 234.58 885.62 274.4 916.83 274.4 916.83 191.01 885.62 191.01 885.62 211.28"/></svg>