<svg width="187" height="57" viewBox="0 0 187 57" fill="none" xmlns="http://www.w3.org/2000/svg">
<path d="M27.9 41.8V40H18.9V56.8H27.9V55H21.1V49.2H25.9V47.4H21.1V41.8H27.9V41.8ZM4.9 40.1V41.9H9.5V56.9H11.7V41.9H16.3V40.1H4.9ZM0 40.1V56.8H2.2V40.1H0Z" fill="#39B796"/>
<path d="M114 40.2L107.8 53.9L101.7 40.2H99.3V54H89V0L68.5 10.2V23.5L59.6 28V54H48.2001V40.2H45.9001L39.8 53.9L33.7001 40.2H31.3V56.8H33.5V44.4L39 56.8H40.5L46 44.4V56.8H62.4001V29.7L68.5 26.7V56.9H80.2V17.7L71.3001 22.1V12L86.3001 4.5V56.8H99.5H101.7V44.4L107.2 56.8H108.7L114.2 44.4V56.8H116.4V40.2H114ZM77.3001 22.2V54H71.2V25.2L77.3001 22.2Z" fill="#39B796"/>
<path d="M127.6 40.2H125L119 56.8H121.3L122.6 53.1L123.2 51.3L126.2 42.9L129.2 51.3L129.8 53.1L131.1 56.8H133.4L127.6 40.2ZM146.4 49.8C145.9 49.2 145.3 48.7 144.7 48.4C144 48.1 143.1 47.8 142 47.5C141.1 47.2 140.4 47 139.9 46.8C139.4 46.6 139 46.3 138.6 45.9C138.3 45.5 138.1 45 138.1 44.4C138.1 43.5 138.4 42.9 139 42.4C139.6 41.9 140.3 41.7 141.2 41.7C142.2 41.7 143 41.9 143.5 42.5C144.1 43 144.4 43.5 144.5 44.2H146.9C146.8 42.9 146.2 41.9 145.2 41.1C144.2 40.3 142.9 39.9 141.4 39.9C140.3 39.9 139.3 40.1 138.5 40.5C137.7 40.9 137 41.4 136.6 42.1C136.1 42.8 135.9 43.6 135.9 44.5C135.9 45.5 136.1 46.4 136.6 47C137.1 47.6 137.6 48.1 138.3 48.3C139 48.6 139.9 48.9 141 49.2C141.9 49.4 142.6 49.7 143.1 49.9C143.6 50.1 144.1 50.4 144.4 50.8C144.8 51.2 144.9 51.7 144.9 52.4C144.9 53.2 144.6 53.9 144 54.4C143.4 54.9 142.6 55.2 141.5 55.2C140.4 55.2 139.6 54.9 139 54.4C138.4 53.9 138.1 53.2 138 52.4H135.7C135.7 53.3 136 54.1 136.5 54.8C137 55.5 137.7 56 138.5 56.4C139.4 56.8 140.4 57 141.5 57C142.7 57 143.7 56.8 144.5 56.3C145.3 55.8 146 55.3 146.4 54.5C146.8 53.8 147.1 53 147.1 52.2C147.1 51.2 146.9 50.4 146.4 49.8ZM149.3 40.1V41.9H153.9V56.9H156.1V41.9H160.7V40.1H149.3ZM172.3 41.9V40.1H163.3V56.9H172.3V55H165.5V49.2H170V47.4H165.5V41.8H172.3V41.9ZM182.8 49.8C184.1 49.5 185.1 48.9 185.8 48C186.5 47.1 186.8 46.1 186.8 44.9C186.8 44 186.6 43.1 186.1 42.4C185.7 41.7 185 41.1 184.1 40.6C183.2 40.2 182.2 39.9 180.9 39.9H175.5V56.6H177.7V50H180.3L184.3 56.8H186.9L182.8 49.8ZM177.8 48.2V41.9H181C182.2 41.9 183.1 42.2 183.7 42.7C184.3 43.3 184.6 44 184.6 45C184.6 46 184.3 46.8 183.7 47.4C183.1 48 182.2 48.3 181 48.3H177.8V48.2Z" fill="#39B796"/>
</svg>
